<svg width="691" height="821" viewBox="0 0 691 821" fill="none" xmlns="http://www.w3.org/2000/svg">
<path d="M53 666V143C53 109.397 53 92.5953 59.5396 79.7606C65.292 68.4708 74.4708 59.292 85.7606 53.5396C98.5953 47 115.397 47 149 47H542C575.603 47 592.405 47 605.239 53.5396C616.529 59.292 625.708 68.4708 631.46 79.7606C638 92.5953 638 109.397 638 143V483.427C638 497.675 638 504.799 636.43 511.526C635.039 517.49 632.742 523.207 629.62 528.476C626.099 534.419 621.17 539.562 611.311 549.849L611.311 549.85L436.345 732.423C425.893 743.329 420.668 748.782 414.504 752.686C409.041 756.147 403.054 758.702 396.775 760.252C389.692 762 382.139 762 367.034 762H149C115.397 762 98.5953 762 85.7606 755.46C74.4708 749.708 65.292 740.529 59.5396 729.239C53 716.405 53 699.603 53 666Z" stroke="white" stroke-width="20" stroke-dasharray="60 39"/>
</svg>
